<svg width="40" height="30" viewBox="0 0 40 30" fill="none" xmlns="http://www.w3.org/2000/svg">
<g clip-path="url(#clip0_52_2)">
<path d="M9.04774 29.8522V14.4776L4.27961 10.1155L0.00390625 7.69482V27.139C0.00390625 28.6403 1.22023 29.8522 2.71712 29.8522H9.04774V29.8522Z" fill="#4285F4"/>
<path d="M30.7529 29.8526H37.0836C38.585 29.8526 39.7968 28.6361 39.7968 27.1394V7.69531L34.9539 10.4679L30.7529 14.478V29.8526V29.8526Z" fill="#34A853"/>
<path d="M9.04725 14.4776L8.39844 8.47029L9.04725 2.7207L19.8998 10.8602L30.7523 2.7207L31.4782 8.15987L30.7523 14.4776L19.8998 22.6171L9.04725 14.4776Z" fill="#EA4335"/>
<path d="M30.7529 2.72078V14.4777L39.7968 7.69487V4.07731C39.7968 0.722128 35.9667 -1.19057 33.2854 0.82161L30.7529 2.72078Z" fill="#FBBC04"/>
<path d="M0.00390625 7.69495L4.16334 10.8146L9.04774 14.4777V2.72085L6.51531 0.821681C3.82929 -1.19065 0.00390625 0.722199 0.00390625 4.07723V7.69479V7.69495Z" fill="#C5221F"/>
</g>
<defs>
<clipPath id="clip0_52_2">
<rect width="39.8" height="30" fill="white"/>
</clipPath>
</defs>
</svg>
