<svg xmlns="http://www.w3.org/2000/svg" xmlns:xlink="http://www.w3.org/1999/xlink" width="210mm" height="297mm" version="1.1" viewBox="0 0 21000 29700" xml:space="preserve" style="shape-rendering:geometricPrecision;text-rendering:geometricPrecision;image-rendering:optimizeQuality;fill-rule:evenodd;clip-rule:evenodd"><defs><style type="text/css">.fil1{fill:#280068}.fil2{fill:#390091}.fil0{fill:#a179dc}.fil3{fill:#fff}</style></defs><g id="Camada_x0020_1"><metadata id="CorelCorpID_0Corel-Layer"/><g id="csharp.svg"><g><path d="M12287 21975c0,-11 -2,-21 -7,-29 -4,-8 -11,-15 -21,-20 -76,-44 -153,-88 -229,-132 -21,-12 -41,-12 -61,0 -31,18 -183,106 -229,132 -18,11 -27,27 -27,49 0,89 0,177 0,266 0,11 2,20 6,28 5,9 12,16 21,21 46,26 198,114 229,132 20,12 40,12 61,0 76,-44 153,-88 229,-132 10,-6 17,-13 22,-21 4,-8 6,-17 6,-28 0,0 0,-177 0,-266l0 0zm0 0l0 0 0 0z" class="fil0"/></g><path d="M12001 22107l-282 162c5,9 12,16 21,21 46,26 198,114 229,132 20,12 40,12 61,0 76,-44 153,-88 229,-132 10,-6 17,-13 22,-21l-280 -162z" class="fil1"/><path d="M12287 21975c0,-11 -2,-21 -7,-29l-279 161 280 162c4,-8 6,-17 6,-28 0,0 0,-177 0,-266z" class="fil2"/><g id="_2565544217248"><path d="M12167 22047l0 30 30 0 0 -30 15 0 0 30 30 0 0 15 -30 0 0 30 30 0 0 15 -30 0 0 31 -15 0 0 -31 -30 0 0 31 -16 0 0 -31 -30 0 0 -15 30 0 0 -30 -30 0 0 -15 30 0 0 -30 16 0zm30 45l-30 0 0 30 30 0 0 -30z" class="fil3"/><path d="M12001 21894c79,0 148,43 185,107l0 -1 -93 54c-18,-31 -52,-52 -90,-52l-2 0c-58,0 -106,47 -106,106 0,0 0,0 0,0 0,19 5,37 14,53 18,32 53,53 92,53 40,0 75,-22 93,-54l0 1 92 54c-36,63 -104,106 -182,107l-3 0c-79,0 -148,-44 -185,-108 -18,-31 -28,-67 -28,-106 0,-118 95,-214 213,-214l0 0z" class="fil3"/></g></g></g></svg>