<svg xmlns="http://www.w3.org/2000/svg" width="27" height="30" fill="none" viewBox="0 0 27 30"><g clip-path="url(#clip0_49_2)"><path fill="#A179DC" d="M26.6232 8.79707C26.623 8.29395 26.5154 7.84936 26.2978 7.46791C26.0841 7.09259 25.764 6.77811 25.3346 6.52947C21.7903 4.48582 18.2426 2.44843 14.6995 0.402697C13.7443 -0.148761 12.8181 -0.128553 11.87 0.430822C10.4593 1.2627 3.39626 5.30926 1.29157 6.52832C0.424798 7.0302 0.00302734 7.79811 0.00281901 8.79613C0.00146484 12.906 0.00281901 17.0159 0.00146484 21.1258C0.00146484 21.6179 0.104694 22.0539 0.312715 22.4297C0.526569 22.8162 0.851152 23.1394 1.29042 23.3936C3.39521 24.6127 10.4592 28.6589 11.8696 29.4911C12.8181 30.0508 13.7443 30.0708 14.6998 29.5193C18.243 27.4734 21.7909 25.436 25.3357 23.3924C25.775 23.1382 26.0996 22.8149 26.3134 22.4286C26.5212 22.0528 26.6246 21.6169 26.6246 21.1247C26.6246 21.1247 26.6246 12.9071 26.6232 8.79707Z"/><path fill="#280068" d="M13.354 14.9209L0.312988 22.4296C0.526842 22.8162 0.851426 23.1393 1.2907 23.3936C3.39549 24.6127 10.4594 28.6589 11.8699 29.4911C12.8184 30.0508 13.7446 30.0708 14.7001 29.5192C18.2433 27.4734 21.7912 25.436 25.336 23.3924C25.7753 23.1382 26.0999 22.8149 26.3137 22.4286L13.354 14.9209"/><path fill="#390091" d="M26.6235 8.79718C26.6233 8.29406 26.5157 7.84948 26.2981 7.46802L13.354 14.9211L26.3137 22.4287C26.5214 22.0529 26.6246 21.617 26.6248 21.1248C26.6248 21.1248 26.6248 12.9072 26.6235 8.79718"/><path fill="#fff" d="M21.032 12.114V13.5176H22.4355V12.114H23.1373V13.5176H24.5408V14.2193H23.1373V15.6228H24.5408V16.3245H23.1373V17.7281H22.4355V16.3245H21.032V17.7281H20.3302V16.3245H18.9268V15.6228H20.3302V14.2193H18.9268V13.5176H20.3302V12.114H21.032ZM22.4355 14.2192H21.032V15.6228H22.4355V14.2193V14.2192Z"/><path fill="#fff" d="M13.3828 5.06529C17.0436 5.06529 20.2397 7.05341 21.9517 10.0086L21.935 9.98019L17.6278 12.4602C16.7792 11.0234 15.2236 10.0537 13.4389 10.0337L13.3826 10.0334C10.6613 10.0334 8.45505 12.2397 8.45505 14.961C8.45415 15.8188 8.67824 16.6617 9.10494 17.4058C9.95432 18.8886 11.5511 19.8887 13.3828 19.8887C15.2258 19.8887 16.8316 18.8759 17.6766 17.3773L17.6561 17.4132L21.9568 19.9047C20.2636 22.8349 17.1112 24.8169 13.493 24.8563L13.3828 24.857C9.71036 24.857 6.50515 22.8565 4.79744 19.8857C3.9638 18.4354 3.48682 16.754 3.48682 14.961C3.48682 9.49581 7.91723 5.06519 13.3826 5.06519L13.3828 5.06529Z"/></g><defs><clipPath id="clip0_49_2"><rect width="26.67" height="30" fill="#fff"/></clipPath></defs></svg>