<svg width="30" height="30" viewBox="0 0 30 30" fill="none" xmlns="http://www.w3.org/2000/svg">
<path d="M5.53312 25.5009L3.42749 1.875H26.5725L24.4641 25.4972L14.9859 28.125L5.53312 25.5009Z" fill="#1572B6"/>
<path d="M15 26.1168L22.6594 23.9934L24.4612 3.80713H15V26.1168Z" fill="#33A9DC"/>
<path d="M15 12.3665H18.8344L19.0987 9.39928H15V6.50146H22.2656L22.1963 7.27865L21.4847 15.2643H15V12.3665V12.3665Z" fill="white"/>
<path d="M15.0179 19.892L15.0048 19.8957L11.7779 19.0238L11.5717 16.7129H8.6626L9.06854 21.2626L15.0038 22.9107L15.0179 22.907V19.892V19.892Z" fill="#EBEBEB"/>
<path d="M18.5879 15.1416L18.2391 19.0219L15.0076 19.8938V22.9088L20.9476 21.2625L20.9916 20.7732L21.4951 15.1416H18.5879V15.1416Z" fill="white"/>
<path d="M15.0103 6.50146V9.39928H8.01091L7.95278 8.74772L7.8206 7.27865L7.75122 6.50146H15.0103V6.50146ZM15 12.3665V15.2643H11.8134L11.7553 14.6127L11.624 13.1437L11.5547 12.3665H15V12.3665Z" fill="#EBEBEB"/>
</svg>
