<svg width="30" height="30" viewBox="0 0 30 30" fill="none" xmlns="http://www.w3.org/2000/svg">
<g clip-path="url(#clip0_102_7)">
<path d="M3.96007 9.4585V20.3963H5.23976V12.4857C5.25035 11.9851 5.22905 11.4844 5.17601 10.9866H5.22476C5.31757 11.2257 5.43476 11.4554 5.57163 11.6701L11.1966 20.3907H12.7641V9.4585H11.4901V17.1488C11.4751 17.686 11.5051 18.2232 11.5679 18.7557H11.5388C11.3987 18.5068 11.2505 18.2627 11.0944 18.0235L5.62038 9.45943L3.96007 9.4585ZM15.601 9.4585V20.3963H21.4163L21.421 19.1954H16.9088V15.4013H20.8594V14.2491H16.9088V10.6163H21.1473V9.45943L15.601 9.4585ZM22.3979 9.4585V10.6154H25.5423V20.3954H26.8219V10.6154H30.001V9.4585H22.3979ZM0.815696 18.8335C0.708075 18.8363 0.60211 18.8607 0.504052 18.9051C0.405994 18.9496 0.317829 19.0132 0.244759 19.0922C0.0875758 19.2527 -8.94521e-06 19.4686 0.00100865 19.6932C-0.000456646 19.8613 0.048287 20.0261 0.141 20.1663C0.233712 20.3066 0.366175 20.416 0.521431 20.4805C0.676687 20.5451 0.847671 20.5618 1.01249 20.5286C1.17732 20.4954 1.32848 20.4137 1.44663 20.2941C1.60788 20.1376 1.7007 19.9182 1.7007 19.6932C1.7007 19.4682 1.60788 19.2488 1.44663 19.0922C1.36954 19.0102 1.27642 18.945 1.17305 18.9004C1.06967 18.8559 0.958247 18.8331 0.845696 18.8335H0.816634H0.815696Z" fill="#9747FF"/>
</g>
<defs>
<clipPath id="clip0_102_7">
<rect width="30" height="30" fill="white"/>
</clipPath>
</defs>
</svg>
