<svg width="31" height="30" viewBox="0 0 31 30" fill="none" xmlns="http://www.w3.org/2000/svg">
<path d="M20.22 20C22.9814 20 25.22 17.7614 25.22 15C25.22 12.2386 22.9814 10 20.22 10C17.4586 10 15.22 12.2386 15.22 15C15.22 17.7614 17.4586 20 20.22 20Z" fill="#19BCFE"/>
<path fill-rule="evenodd" clip-rule="evenodd" d="M10.22 30C11.5461 30 12.8179 29.4732 13.7555 28.5355C14.6932 27.5979 15.22 26.3261 15.22 25V20H10.22C8.89392 20 7.62215 20.5268 6.68447 21.4645C5.74679 22.4021 5.22 23.6739 5.22 25C5.22 26.3261 5.74679 27.5979 6.68447 28.5355C7.62215 29.4732 8.89392 30 10.22 30V30Z" fill="#09CF83"/>
<path fill-rule="evenodd" clip-rule="evenodd" d="M10.22 20H15.22V10H10.22C8.89392 10 7.62215 10.5268 6.68447 11.4645C5.74679 12.4021 5.22 13.6739 5.22 15C5.22 16.3261 5.74679 17.5979 6.68447 18.5355C7.62215 19.4732 8.89392 20 10.22 20V20Z" fill="#A259FF"/>
<path fill-rule="evenodd" clip-rule="evenodd" d="M10.22 10H15.22V0H10.22C8.89392 0 7.62215 0.526784 6.68447 1.46447C5.74679 2.40215 5.22 3.67392 5.22 5C5.22 6.32608 5.74679 7.59785 6.68447 8.53553C7.62215 9.47322 8.89392 10 10.22 10V10Z" fill="#F24E1E"/>
<path fill-rule="evenodd" clip-rule="evenodd" d="M20.22 10H15.22V0H20.22C21.5461 0 22.8179 0.526784 23.7555 1.46447C24.6932 2.40215 25.22 3.67392 25.22 5C25.22 6.32608 24.6932 7.59785 23.7555 8.53553C22.8179 9.47322 21.5461 10 20.22 10Z" fill="#FF7262"/>
</svg>
