<svg width="23" height="30" viewBox="0 0 23 30" fill="none" xmlns="http://www.w3.org/2000/svg">
<g clip-path="url(#clip0_49_11)">
<path d="M7.1596 23.1914C7.1596 23.1914 6.01526 23.8569 7.97402 24.082C10.3471 24.3527 11.5598 24.314 14.1749 23.819C14.1749 23.819 14.8625 24.2501 15.8226 24.6235C9.96035 27.136 2.55503 24.4779 7.1596 23.1914" fill="#5382A1"/>
<path d="M6.44325 19.9126C6.44325 19.9126 5.15975 20.8627 7.11998 21.0654C9.6549 21.3269 11.6567 21.3483 15.1208 20.6813C15.1208 20.6813 15.5999 21.167 16.3533 21.4327C9.26542 23.5053 1.37082 21.5962 6.44325 19.9126" fill="#5382A1"/>
<path d="M12.4822 14.3511C13.9268 16.0141 12.1027 17.5106 12.1027 17.5106C12.1027 17.5106 15.7705 15.6172 14.086 13.2462C12.5129 11.0352 11.3063 9.93649 17.8376 6.14868C17.8376 6.14868 7.58574 8.70909 12.4822 14.351" fill="#E76F00"/>
<path d="M20.2356 25.6163C20.2356 25.6163 21.0825 26.314 19.3029 26.8539C15.9192 27.879 5.21925 28.1885 2.24682 26.8947C1.17835 26.43 3.18211 25.7849 3.81237 25.6494C4.46968 25.5069 4.84537 25.5335 4.84537 25.5335C3.65708 24.6964 -2.83523 27.1772 1.54763 27.8876C13.5002 29.8259 23.336 27.0148 20.2356 25.6163Z" fill="#5382A1"/>
<path d="M7.70984 16.5156C7.70984 16.5156 2.26726 17.8084 5.78255 18.2777C7.26677 18.4765 10.2256 18.4315 12.9817 18.2006C15.2341 18.0107 17.4958 17.6066 17.4958 17.6066C17.4958 17.6066 16.7016 17.9468 16.127 18.3391C10.6001 19.7927 -0.0769845 19.1165 2.9968 17.6296C5.59631 16.3731 7.70992 16.5156 7.70992 16.5156" fill="#5382A1"/>
<path d="M17.4734 21.973C23.0919 19.0535 20.4941 16.2479 18.6809 16.6259C18.2365 16.7183 18.0383 16.7985 18.0383 16.7985C18.0383 16.7985 18.2033 16.5401 18.5184 16.4282C22.1054 15.1671 24.8641 20.1476 17.3605 22.1202C17.3605 22.1203 17.4474 22.0426 17.4734 21.973" fill="#5382A1"/>
<path d="M14.086 0.0320691C14.086 0.0320691 17.1976 3.14479 11.1348 7.931C6.2732 11.7705 10.0262 13.9596 11.1328 16.4608C8.29499 13.9004 6.21233 11.6464 7.60958 9.54866C9.66025 6.46915 15.3414 4.97617 14.086 0.0319824" fill="#E76F00"/>
<path d="M8.26196 29.8842C13.6549 30.2295 21.9364 29.6927 22.1325 27.1409C22.1325 27.1409 21.7555 28.1083 17.6755 28.8765C13.0725 29.7427 7.39543 29.6416 4.02823 29.0864C4.02832 29.0864 4.71753 29.657 8.26204 29.8842" fill="#5382A1"/>
</g>
<defs>
<clipPath id="clip0_49_11">
<rect width="22.2" height="30" fill="white"/>
</clipPath>
</defs>
</svg>
