<svg width="30" height="30" viewBox="0 0 30 30" fill="none" xmlns="http://www.w3.org/2000/svg">
<path d="M28.2584 15.3917L25.6501 7.00837C25.5451 6.66821 25.3339 6.3706 25.0474 6.15916C24.761 5.94772 24.4144 5.83355 24.0584 5.83337H5.94175C5.58574 5.83355 5.23914 5.94772 4.95271 6.15916C4.66629 6.3706 4.4551 6.66821 4.35008 7.00837L1.74175 15.4C1.6923 15.5593 1.66702 15.725 1.66675 15.8917V22.5C1.66675 22.9421 1.84234 23.366 2.1549 23.6785C2.46746 23.9911 2.89139 24.1667 3.33341 24.1667H26.6667C27.1088 24.1667 27.5327 23.9911 27.8453 23.6785C28.1578 23.366 28.3334 22.9421 28.3334 22.5V15.8834C28.3331 15.7167 28.3079 15.5509 28.2584 15.3917V15.3917ZM7.43341 20.8334H5.93341V18.3334H7.43341V20.8334ZM11.6001 20.8334H10.1001V18.3334H11.6001V20.8334ZM15.7667 20.8334H14.2667V18.3334H15.7667V20.8334ZM19.9334 20.8334H18.4167V18.3334H19.9167L19.9334 20.8334ZM24.1001 20.8334H22.5834V18.3334H24.0834L24.1001 20.8334ZM25.8334 16.1667H4.16675V15H25.8334V16.1667Z" fill="#699BF7"/>
</svg>
