<svg xmlns="http://www.w3.org/2000/svg" width="20" height="23" fill="none" viewBox="0 0 20 23"><path fill="#fff" d="M17.7334 2.06982C14.9737 -0.689941 10.4795 -0.689941 7.72268 2.06982L0.0761991 9.71045C0.0263945 9.76025 2.70846e-05 9.82764 2.70846e-05 9.89795C2.70846e-05 9.96826 0.0263945 10.0356 0.0761991 10.0854L1.15725 11.1665C1.20667 11.2157 1.27356 11.2433 1.34329 11.2433C1.41302 11.2433 1.47991 11.2157 1.52932 11.1665L9.17581 3.52588C10.125 2.57666 11.3877 2.05518 12.7295 2.05518C14.0713 2.05518 15.334 2.57666 16.2803 3.52588C17.2295 4.4751 17.751 5.73779 17.751 7.07666C17.751 8.41846 17.2295 9.67822 16.2803 10.6274L8.48733 18.4175L7.22464 19.6802C6.04397 20.8608 4.12503 20.8608 2.94436 19.6802C2.37307 19.1089 2.0596 18.3501 2.0596 17.5415C2.0596 16.7329 2.37307 15.9741 2.94436 15.4028L10.6758 7.67432C10.8721 7.48096 11.1299 7.37256 11.4053 7.37256H11.4082C11.6836 7.37256 11.9385 7.48096 12.1319 7.67432C12.3282 7.8706 12.4336 8.12842 12.4336 8.40381C12.4336 8.67627 12.3252 8.93408 12.1319 9.12744L5.81253 15.4409C5.76272 15.4907 5.73636 15.5581 5.73636 15.6284C5.73636 15.6987 5.76272 15.7661 5.81253 15.8159L6.89358 16.897C6.943 16.9462 7.00989 16.9738 7.07962 16.9738C7.14935 16.9738 7.21624 16.9462 7.26565 16.897L13.5821 10.5806C14.1651 9.99756 14.4844 9.22412 14.4844 8.40088C14.4844 7.57764 14.1621 6.80127 13.5821 6.22119C12.378 5.01709 10.4209 5.02002 9.21682 6.22119L8.46682 6.97412L1.48831 13.9497C1.01467 14.4206 0.639222 14.9808 0.383744 15.5978C0.128266 16.2149 -0.00216115 16.8766 2.70846e-05 17.5444C2.70846e-05 18.9009 0.530301 20.1753 1.48831 21.1333C2.48147 22.1235 3.78225 22.6187 5.08304 22.6187C6.38382 22.6187 7.6846 22.1235 8.67483 21.1333L17.7334 12.0806C19.0664 10.7446 19.8047 8.96631 19.8047 7.07666C19.8076 5.18408 19.0694 3.40576 17.7334 2.06982Z"/></svg>