<svg xmlns="http://www.w3.org/2000/svg" xmlns:xlink="http://www.w3.org/1999/xlink" width="210mm" height="297mm" data-name="Layer 1" version="1.1" viewBox="0 0 21000 29700" xml:space="preserve" style="shape-rendering:geometricPrecision;text-rendering:geometricPrecision;image-rendering:optimizeQuality;fill-rule:evenodd;clip-rule:evenodd"><defs><style type="text/css">.fil4{fill:#2f2e41}.fil3{fill:#3f3d56}.fil0{fill:#ccc}.fil1{fill:#e6e6e6}.fil7{fill:#f2f2f2}.fil5{fill:#f9a826}.fil2{fill:#fff}.fil6{fill:#000;fill-opacity:.2}</style></defs><g id="Camada_x0020_1"><metadata id="CorelCorpID_0Corel-Layer"/><path d="M12301 16098l-3356 0c-62,0 -112,-51 -112,-113l0 0c1216,-141 2410,-141 3580,0l0 0c0,62 -50,113 -112,113l0 0z" class="fil0"/><path d="M12413 15992l-3580 -7 415 -698 2 -3 0 -1539c0,0 0,0 0,0 0,-79 63,-143 142,-143 0,0 0,0 0,0l2442 0c0,0 0,0 0,0 79,0 143,64 143,143 0,0 0,0 0,0l0 1549 436 698z" class="fil1"/><path d="M9389 13702c-26,0 -47,20 -47,46l0 1403c0,26 21,46 47,46l2468 1c26,-1 47,-21 47,-47l0 -1403c0,-26 -21,-46 -47,-46l-2468 0z" class="fil2"/><path d="M9405 15383c-8,0 -15,4 -18,11l-128 278c-1,3 -2,6 -2,9 0,11 9,20 20,20l2689 0c11,0 20,-9 20,-20 0,-3 -1,-6 -2,-9l-139 -278c-3,-7 -10,-11 -18,-11 0,0 0,0 0,0l-2422 0z" class="fil0"/><circle cx="10613" cy="13649" r="30" class="fil2"/><path d="M10349 15753c-9,1 -17,7 -19,15l-32 119c-1,2 -1,4 -1,5 0,11 9,20 20,20 0,0 0,0 0,0l610 0c0,0 0,0 0,0 11,0 20,-9 20,-20 0,-2 -1,-4 -2,-6l-41 -119c-3,-8 -10,-14 -19,-14l-536 0z" class="fil0"/><polygon points="11977 15260 11977 15287 9248 15287 9250 15284 9250 15260" class="fil0"/><path d="M11640 15321c-2,0 -4,1 -5,4l-8 29c0,0 0,0 0,1 0,3 2,5 5,5 0,0 0,0 0,0l148 0c0,0 0,0 0,0 3,0 5,-2 5,-5 0,-1 0,-1 0,-2l-10 -29c-1,-2 -2,-3 -5,-3l-130 0z" class="fil0"/><path d="M11423 15321c-2,0 -4,1 -5,4l-8 29c0,0 0,0 0,1 0,3 2,5 5,5 0,0 0,0 0,0l149 0c0,0 0,0 0,0 2,0 4,-2 4,-5 0,-1 0,-1 0,-2l-10 -29c-1,-2 -2,-3 -4,-3l-131 0z" class="fil0"/><path d="M10794 15505l12 0 -23 -1556 -12 0 1 31 -261 0 0 -31 -12 0 -23 1556 12 0 1 -101 304 0 1 101zm-16 -1121l-273 0 2 -190 268 0 3 190zm0 11l3 191 -279 0 2 -191 274 0zm3 202l3 190 -285 0 2 -190 280 0zm3 202l3 190 -291 0 2 -190 286 0zm3 202l3 190 -297 0 2 -190 292 0zm-15 -1009l3 190 -267 0 2 -190 262 0zm-282 1401l2 -190 298 0 3 190 -303 0z" class="fil3"/><circle cx="10583" cy="14295" r="190" class="fil4"/><rect width="338" height="605" class="fil4" transform="matrix(0.168059 -0.0304234 0.0304234 0.168059 10638.4 14436.8)"/><rect width="338" height="605" class="fil4" transform="matrix(0.168059 -0.0304234 0.0304234 0.168059 10524.9 14457.3)"/><ellipse class="fil4" rx="281" ry="106" transform="matrix(0.130331 -0.110377 0.110377 0.130331 10561.8 14566.7)"/><ellipse class="fil4" rx="281" ry="106" transform="matrix(0.130331 -0.110377 0.110377 0.130331 10672.9 14546.5)"/><circle cx="10570" cy="14249" r="65" class="fil2"/><circle cx="10543" cy="14226" r="22" class="fil3"/><path d="M10733 14089c3,-70 -57,-130 -135,-133 -78,-3 -143,51 -146,121 -3,71 51,87 129,90 78,3 149,-8 152,-78z" class="fil5"/><ellipse class="fil4" rx="174" ry="556" transform="matrix(0.0381583 -0.166473 0.166473 0.0381583 10408.2 14260.7)"/><ellipse class="fil4" rx="174" ry="556" transform="matrix(0.0381583 -0.166473 0.166473 0.0381583 10780.8 14322.7)"/><path d="M10636 14370c0,3 0,5 0,8 0,24 -19,43 -43,43 -21,0 -39,-15 -43,-35l0 0c-4,-24 14,-32 38,-37 23,-4 43,-2 48,21z" class="fil2"/><ellipse class="fil4" rx="570" ry="179" transform="matrix(0.060977 -0.159534 0.159534 0.060977 9911.92 14929.2)"/><circle r="1139" class="fil4" transform="matrix(0.0273576 -0.168585 0.168585 0.0273576 9732.04 15076.2)"/><rect width="59.122" height="105.929" x="9643" y="15229" class="fil4"/><rect width="59.122" height="105.929" x="9762" y="15229" class="fil4"/><ellipse cx="9693" cy="15336" class="fil4" rx="49" ry="18"/><ellipse cx="9811" cy="15334" class="fil4" rx="49" ry="18"/><path d="M9543 14895c-15,-70 35,-141 112,-159 78,-17 154,26 170,96 15,71 -36,97 -114,114 -78,17 -152,20 -168,-51z" class="fil5"/><ellipse class="fil4" rx="179" ry="570" transform="matrix(0.0731886 -0.154314 0.154314 0.0731886 9512.84 14985.9)"/><circle cx="8889" cy="15273" r="195" class="fil4"/><rect width="59.122" height="105.929" x="8801" y="15426" class="fil4"/><rect width="59.122" height="105.929" x="8919" y="15426" class="fil4"/><ellipse cx="8850" cy="15533" class="fil4" rx="49" ry="18"/><ellipse cx="8968" cy="15531" class="fil4" rx="49" ry="18"/><circle cx="8894" cy="15224" r="67" class="fil2"/><circle cx="8894" cy="15224" r="22" class="fil3"/><path d="M8701 15092c-16,-70 34,-141 112,-159 77,-17 153,26 169,96 16,71 -36,97 -114,114 -77,17 -152,20 -167,-51z" class="fil1"/><ellipse class="fil4" rx="570" ry="179" transform="matrix(0.060977 -0.159534 0.159534 0.060977 9002.75 14567)"/><circle r="1139" class="fil4" transform="matrix(0.0273576 -0.168585 0.168585 0.0273576 8822.87 14714)"/><rect width="59.122" height="105.929" x="8734" y="14867" class="fil4"/><rect width="59.122" height="105.929" x="8852" y="14867" class="fil4"/><ellipse cx="8783" cy="14974" class="fil4" rx="49" ry="18"/><ellipse cx="8902" cy="14971" class="fil4" rx="49" ry="18"/><circle cx="8828" cy="14665" r="67" class="fil2"/><circle cx="8828" cy="14665" r="22" class="fil3"/><path d="M8634 14533c-16,-70 35,-141 112,-159 78,-17 154,26 169,96 16,71 -35,97 -113,114 -78,17 -152,19 -168,-51z" class="fil5"/><ellipse class="fil4" rx="179" ry="570" transform="matrix(0.0731886 -0.154314 0.154314 0.0731886 8603.67 14623.7)"/><path d="M8727 14784c0,19 49,57 104,57 54,0 105,-54 105,-73 0,-19 -51,4 -105,4 -55,0 -104,-7 -104,12z" class="fil2"/><path d="M9014 13971c-7,0 -13,6 -13,13l0 561c0,7 6,13 13,13l1297 0c8,0 14,-6 14,-13l0 -561c0,-7 -6,-13 -14,-13l-1297 0z" class="fil5"/><circle cx="9364" cy="14265" r="132" class="fil2"/><path id="b71acdfd-6a55-428e-917a-53f192cb0203-120" d="M5590 11320c-49,1 -89,41 -89,90 0,49 40,89 89,90l2433 0c0,0 1,0 1,0 50,0 90,-40 90,-90 0,-49 -39,-89 -88,-90 -1,0 -2,0 -3,0l-2433 0z" class="fil2" data-name="Path 40"/><path id="ad4fbcfa-41b0-45f9-a593-23b6dc3fe165-121" d="M5590 10798c-49,1 -89,41 -89,90 0,49 40,90 89,90l1215 0c0,0 1,0 1,0 50,0 90,-40 90,-90 0,-49 -39,-89 -88,-90 -1,0 -2,0 -3,0l-1215 0z" class="fil2" data-name="Path 40"/><path id="bce2a7cd-a325-424d-9b3a-f63d1dad5aba-122" d="M5590 11867c-49,1 -89,41 -89,90 0,49 40,89 89,90l2433 0c0,0 1,0 1,0 50,0 90,-40 90,-90 0,-49 -39,-89 -88,-90 -1,0 -2,0 -3,0l-2433 0z" class="fil2" data-name="Path 40"/><ellipse class="fil4" rx="179" ry="570" transform="matrix(0.159534 -0.060977 0.060977 0.159534 11644.5 15286.1)"/><circle r="1139" class="fil4" transform="matrix(0.168585 -0.0273575 0.0273575 0.168585 11783.7 15473.7)"/><polygon points="11872 15626 11813 15626 11825 15753 11873 15740" class="fil4"/><polygon points="11744 15627 11684 15627 11696 15754 11741 15740" class="fil4"/><ellipse class="fil4" rx="288" ry="108" transform="matrix(0.170335 -0.0124538 0.0124538 0.170335 11692.9 15741.2)"/><circle cx="11779" cy="15424" r="67" class="fil2"/><circle cx="11779" cy="15424" r="22" class="fil3"/><ellipse class="fil4" rx="570" ry="179" transform="matrix(0.10147 -0.137379 0.137379 0.10147 11989.4 15338.2)"/><path d="M11689 15574c0,-16 40,-47 85,-47 45,0 87,45 87,60 0,16 -42,-3 -87,-3 -45,0 -85,6 -85,-10z" class="fil2"/><path d="M12329 15313l-1065 -148c-15,-2 -27,-15 -27,-31 0,-2 0,-3 0,-4l120 -864c2,-16 15,-28 31,-28 2,0 3,0 5,1l1065 147c16,3 27,16 27,32 0,1 0,3 0,4l-120 864c-2,16 -15,27 -31,27 -2,0 -3,0 -5,0l0 0z" class="fil5"/><path d="M11948 15043l-544 -75c-1,0 -1,0 -2,-1l319 -409c3,-5 9,-8 14,-8 8,0 15,5 17,12l131 323 7 15 58 143z" class="fil2"/><polygon points="11948 15043 11762 15018 11872 14898 11880 14889 11883 14885 11890 14900" class="fil6"/><path d="M12251 15085l-471 -65 110 -120 8 -8 142 -156c5,-5 11,-7 17,-7 8,0 15,3 19,9 1,1 1,2 2,3l173 344z" class="fil2"/><circle cx="11954" cy="14615" r="81" class="fil2"/><rect width="582" height="582" class="fil3" transform="matrix(0.169173 0.0234529 -0.0234529 0.169173 11410.8 14305.1)"/><path d="M11973 15293c15,-71 -35,-142 -113,-159 -77,-17 -153,26 -169,96 -16,70 36,96 114,114 77,17 152,19 168,-51z" class="fil7"/><ellipse class="fil4" rx="288" ry="108" transform="matrix(0.170335 -0.0124538 0.0124538 0.170335 11822.6 15740.9)"/></g></svg>