<svg width="45" height="30" viewBox="0 0 45 30" fill="none" xmlns="http://www.w3.org/2000/svg">
<g clip-path="url(#clip0_49_20)">
<path d="M13.2968 19.7963L14.6344 24.1362C14.9349 25.1215 15.0602 25.8094 15.01 26.2015C15.7415 24.2423 16.2527 22.1072 16.5435 19.7963H18.1518C17.4602 23.5584 16.5481 26.2923 15.4159 27.9978C14.5338 29.312 13.5674 29.9691 12.5151 29.9691C12.2345 29.9691 11.8886 29.8843 11.4782 29.716V28.8091C11.6787 28.8385 11.914 28.8543 12.1846 28.8543C12.6755 28.8543 13.0712 28.7182 13.3722 28.4466C13.7327 28.1158 13.9131 27.7439 13.9131 27.3317C13.9131 27.0503 13.7724 26.4727 13.4922 25.599L11.6286 19.7963H13.2967H13.2968ZM3.06013 17.1289L5.50999 24.6036H5.52512L7.99002 17.1289H10.0039C10.4449 20.8358 10.7053 24.2276 10.7853 27.3019H9.08738C9.02764 24.428 8.86216 21.7256 8.59156 19.1942H8.57678L5.99128 27.3019H4.69827L2.12841 19.1942H2.11328C1.92262 21.6253 1.80262 24.3277 1.75259 27.3019H0.204285C0.304342 23.6847 0.554743 20.294 0.955488 17.1289H3.06022H3.06013Z" fill="#00758F"/>
<path d="M30.505 16.9779C33.1402 16.9779 34.4579 18.6615 34.4579 22.0271C34.4579 23.8559 34.0616 25.2374 33.2699 26.1707C33.1272 26.3412 32.9694 26.4886 32.8034 26.6251L34.6683 27.5472L34.6665 27.5471L34.0043 28.6905L31.5757 27.2735C31.1731 27.3927 30.7302 27.4523 30.2475 27.4523C28.9536 27.4523 27.987 27.0751 27.348 26.3219C26.6466 25.4886 26.296 24.1768 26.296 22.3886C26.296 20.57 26.6916 19.1938 27.4836 18.2594C28.205 17.4046 29.2123 16.9778 30.505 16.9778V16.9779ZM22.435 16.9927C23.3769 16.9927 24.2333 17.2447 25.0047 17.747L24.6129 18.62C23.9528 18.3395 23.302 18.1986 22.6603 18.1986C22.1395 18.1986 21.7383 18.3239 21.4585 18.5761C21.1773 18.8261 21.0033 19.1478 21.0033 19.5399C21.0033 20.1425 21.4326 20.665 22.2252 21.1065C22.4849 21.2485 22.7437 21.392 23.0015 21.5373L23.0607 21.5705L23.0903 21.5872L23.1495 21.6205L23.1791 21.6372L23.2383 21.6705C23.8383 22.0088 24.4028 22.3316 24.4028 22.3316C25.1954 22.8942 25.5905 23.4941 25.5905 24.482C25.5905 25.3448 25.2743 26.053 24.644 26.6072C24.0134 27.1589 23.1661 27.4355 22.105 27.4355C21.1126 27.4355 20.1507 27.1171 19.2191 26.4856L19.6549 25.6118C20.4567 26.0136 21.1822 26.2143 21.8337 26.2143C22.4447 26.2143 22.923 26.0779 23.2689 25.8085C23.6142 25.5372 23.8212 25.1587 23.8212 24.6788C23.8212 24.0747 23.401 23.5584 22.6302 23.1252C22.3889 22.9919 22.1484 22.8573 21.9085 22.7215L21.8495 22.688C21.741 22.6267 21.6318 22.5647 21.5247 22.5039L21.4667 22.4709C20.9462 22.1748 20.4962 21.9162 20.4962 21.9162C19.7257 21.3525 19.3393 20.7478 19.3393 19.7514C19.3393 18.9273 19.6274 18.2612 20.2028 17.7544C20.7796 17.2466 21.5238 16.9927 22.435 16.9927V16.9927ZM37.555 17.1288V26.0504H40.7559V27.3018H35.9315V17.1288H37.555ZM42.5346 26.0543V26.2657H42.1827V27.3007H41.9136V26.2657H41.5481V26.0543H42.5347H42.5346ZM43.1845 26.0543L43.5224 26.9039L43.8328 26.0543H44.2142V27.3007H43.9606V26.3521L43.6073 27.3007H43.4245L43.0706 26.3521H43.057V27.3007H42.8171V26.0543H43.1846H43.1845ZM30.3392 18.2289C28.7863 18.2289 28.0094 19.5106 28.0094 22.0722C28.0094 23.5395 28.2152 24.6035 28.6262 25.2667C29.0069 25.8805 29.603 26.1868 30.4147 26.1868C31.9677 26.1868 32.7445 24.8951 32.7445 22.3131C32.7445 20.8663 32.5386 19.8114 32.1281 19.1478C31.7471 18.5355 31.1512 18.2289 30.3393 18.2289H30.3392Z" fill="#F29111"/>
<path d="M26.2689 0.63035C26.784 -0.635495 28.5853 0.323129 29.2843 0.765307C29.4557 0.875937 29.6522 1.10966 29.8486 1.19605C30.155 1.20809 30.4612 1.23207 30.7682 1.24488C31.3439 1.38018 31.8833 1.49072 32.337 1.74912C34.4454 2.99081 35.8179 4.25614 37.0811 6.34617C37.351 6.78886 37.4859 7.26791 37.7064 7.74697C38.0124 8.46104 38.3562 9.21061 38.7114 9.88582C38.8704 10.2059 38.9934 10.5619 39.2143 10.8322C39.3005 10.9559 39.5454 10.9923 39.6918 11.0661C40.0965 11.2756 40.5868 11.4346 40.9674 11.6805C41.6782 12.1237 42.3655 12.6518 42.9902 13.1925C43.2231 13.4012 43.3818 13.6967 43.6036 13.9174V14.0288C43.4067 14.0893 43.2105 14.1512 43.014 14.2008C42.585 14.311 42.205 14.286 41.7888 14.3963C41.5316 14.4709 41.2122 14.5693 40.9425 14.5944L40.9674 14.6195C41.1261 15.0729 41.9847 15.4417 42.3773 15.7129C42.8542 16.0571 43.2962 16.4745 43.6519 16.9539C43.7747 17.0762 43.8975 17.1875 44.0198 17.3095C44.1052 17.4331 44.1293 17.593 44.2158 17.7032V17.7405C44.12 17.7067 44.0511 17.6422 43.9859 17.5748L43.947 17.5342C43.908 17.4938 43.8687 17.4541 43.8239 17.4213C43.5533 17.2365 43.2846 17.0154 43.014 16.8436C42.5488 16.5484 42.0092 16.3771 41.5316 16.0808C41.2615 15.9088 41.004 15.7129 40.7466 15.516C40.5132 15.3435 40.2562 15.0122 40.1095 14.7664C40.0231 14.6306 40.0113 14.4709 39.9126 14.3727C39.9302 14.2086 40.0806 14.1598 40.2323 14.1198L40.2672 14.1106C40.3195 14.097 40.3708 14.0834 40.4155 14.0655C41.0528 13.7949 41.8126 13.6967 42.7937 13.7213C42.7568 13.4749 42.1437 13.1679 41.948 13.0204C41.5551 12.7373 41.1392 12.4418 40.7224 12.1841C40.5016 12.0492 40.1211 11.9507 39.8764 11.8404C39.5454 11.7051 38.8097 11.5699 38.6262 11.3122C38.3146 10.9059 38.0908 10.4214 37.8735 9.9319L37.8143 9.79832C37.7946 9.7538 37.7748 9.7093 37.755 9.66482C37.4982 9.07539 37.1791 8.46087 36.9216 7.85734C36.787 7.56293 36.7252 7.30453 36.5778 7.02216C35.6832 5.28938 34.3592 3.83863 32.7539 2.81837C32.2263 2.4864 31.6381 2.17918 30.9888 1.97038C30.6208 1.85923 30.1791 1.92069 29.787 1.83542H29.529C29.3088 1.77336 29.1249 1.53989 28.9531 1.4168C28.5735 1.15909 28.1934 0.986052 27.7396 0.802184C27.5805 0.72843 27.1264 0.556682 26.9679 0.691897C26.8697 0.716568 26.82 0.753616 26.7958 0.852126C26.6982 0.999118 26.784 1.22055 26.8448 1.35611C27.0289 1.74895 27.2861 1.98241 27.5196 2.31439C27.7273 2.6088 27.9852 2.94078 28.1325 3.26089C28.4502 3.949 28.5981 4.71138 28.8925 5.3994C29.0017 5.65814 29.1744 5.95256 29.3333 6.18594C29.468 6.37118 29.7129 6.50511 29.787 6.7396C29.9347 6.98545 29.566 7.79665 29.4806 8.05428C29.1613 9.06233 29.2231 10.4636 29.5909 11.3373L29.6105 11.3834L29.6301 11.4301C29.7643 11.7501 29.9081 12.0947 30.2651 12.1842C30.2897 12.1598 30.2651 12.1726 30.3138 12.1598C30.4002 11.4835 30.4245 10.8322 30.6576 10.303C30.7923 9.97213 31.0613 9.73823 31.2457 9.46814C31.3686 9.54173 31.3686 9.76359 31.4419 9.91041C31.6014 10.2912 31.7727 10.7087 31.9694 11.0906C32.3731 11.8772 32.8273 12.6397 33.3419 13.3277C33.5143 13.5735 33.7588 13.844 33.9794 14.0654C34.0776 14.1511 34.1877 14.2006 34.2615 14.3109H34.2856V14.348C33.9178 14.2124 33.6847 13.832 33.3914 13.6099C32.8392 13.1924 32.1779 12.5654 31.7973 11.9637C31.6381 11.6183 31.466 11.2873 31.2944 10.9436V10.9188C31.2211 11.017 31.2457 11.1144 31.209 11.263C31.0498 11.8772 31.1724 12.5778 30.6208 12.7987C29.9955 13.0575 29.5291 12.3812 29.3333 12.0739C28.7079 11.0539 28.5366 9.33319 28.9776 7.94416C29.0756 7.63668 29.089 7.26791 29.26 7.02241C29.2231 6.80046 29.052 6.73978 28.9531 6.60379C28.7815 6.37135 28.6346 6.10058 28.5002 5.84244C28.2422 5.3382 28.0586 4.73571 27.8627 4.19493C27.7765 3.9741 27.7519 3.75241 27.666 3.54336C27.5195 3.22428 27.2495 2.90416 27.0412 2.62187C26.7592 2.21614 25.9378 1.42978 26.2689 0.63035V0.63035ZM30.2894 3.03852C30.3221 3.07135 30.3617 3.10006 30.4026 3.12834L30.4519 3.16221C30.5177 3.20777 30.5814 3.25574 30.6204 3.32107C30.6823 3.40754 30.6938 3.4929 30.7679 3.57955C30.7679 3.87499 30.6823 4.07141 30.5094 4.19382C30.5094 4.19382 30.4977 4.20671 30.4856 4.21875C30.3876 4.02181 30.3017 3.82591 30.203 3.62915C30.0815 3.4574 29.9096 3.32115 29.8106 3.12491H29.7868V3.10024C29.9347 3.0637 30.0815 3.03852 30.2894 3.03852Z" fill="#00758F"/>
</g>
<defs>
<clipPath id="clip0_49_20">
<rect width="44.02" height="30" fill="white" transform="translate(0.200012)"/>
</clipPath>
</defs>
</svg>
