<svg width="30" height="30" viewBox="0 0 30 30" fill="none" xmlns="http://www.w3.org/2000/svg">
<path d="M14.8922 1.96877C8.23594 1.96877 8.65688 4.84689 8.65688 4.84689V7.83752H14.9869V8.77502H6.13594C6.13594 8.77502 1.875 8.25002 1.875 15.0047C1.875 21.7594 5.63719 21.4847 5.63719 21.4847H7.80937V18.3338C7.80937 18.3338 7.6875 14.5716 11.4656 14.5716H17.805C17.805 14.5716 21.3412 14.6278 21.3412 11.1478V5.43752C21.3412 5.43752 21.8775 1.95752 14.9269 1.95752L14.8922 1.96877ZM11.3934 3.97221C11.6185 3.96653 11.8401 4.02771 12.0304 4.14802C12.2207 4.26833 12.371 4.44236 12.4623 4.6481C12.5537 4.85384 12.582 5.08204 12.5436 5.30386C12.5053 5.52568 12.402 5.73115 12.2469 5.89427C12.0918 6.0574 11.8917 6.17086 11.6721 6.2203C11.4525 6.26975 11.2232 6.25296 11.0131 6.17205C10.803 6.09115 10.6217 5.94977 10.492 5.76579C10.3623 5.58181 10.29 5.3635 10.2844 5.13846V5.11971C10.2844 4.81786 10.4043 4.52837 10.6177 4.31493C10.8312 4.10149 11.1207 3.98158 11.4225 3.98158L11.3934 3.97221Z" fill="url(#paint0_linear_49_8)"/>
<path d="M15.0797 28.0407C21.7359 28.0407 21.315 25.1532 21.315 25.1532V22.172H14.9859V21.2345H23.8641C23.8641 21.2345 28.125 21.7107 28.125 14.9954C28.125 8.2801 24.3628 8.51541 24.3628 8.51541H22.1625V11.6251C22.1625 11.6251 22.2844 15.3873 18.5063 15.3873H12.1641C12.1641 15.3873 8.625 15.3339 8.625 18.8139V24.5626C8.625 24.5626 8.08875 28.0426 15.0394 28.0426H15.0769L15.0797 28.0407ZM18.5784 26.0279C18.3534 26.0336 18.1317 25.9724 17.9415 25.8521C17.7512 25.7318 17.6009 25.5578 17.5095 25.352C17.4182 25.1463 17.3899 24.9181 17.4282 24.6963C17.4666 24.4744 17.5699 24.269 17.725 24.1058C17.8801 23.9427 18.0801 23.8293 18.2997 23.7798C18.5194 23.7304 18.7487 23.7472 18.9588 23.8281C19.1688 23.909 19.3502 24.0504 19.4799 24.2343C19.6096 24.4183 19.6819 24.6366 19.6875 24.8617V24.8898C19.6875 25.1916 19.5676 25.4811 19.3542 25.6946C19.1407 25.908 18.8512 26.0279 18.5494 26.0279H18.5775H18.5784Z" fill="url(#paint1_linear_49_8)"/>
<defs>
<linearGradient id="paint0_linear_49_8" x1="4.46921" y1="4.52149" x2="16.9255" y2="16.9495" gradientUnits="userSpaceOnUse">
<stop stop-color="#387EB8"/>
<stop offset="1" stop-color="#366994"/>
</linearGradient>
<linearGradient id="paint1_linear_49_8" x1="11.8383" y1="12.6175" x2="26.0697" y2="25.0418" gradientUnits="userSpaceOnUse">
<stop stop-color="#FFE052"/>
<stop offset="1" stop-color="#FFC331"/>
</linearGradient>
</defs>
</svg>
