<?xml version="1.0" encoding="UTF-8"?>
<!DOCTYPE svg PUBLIC "-//W3C//DTD SVG 1.1//EN" "http://www.w3.org/Graphics/SVG/1.1/DTD/svg11.dtd">
<!-- Creator: CorelDRAW X7 -->
<svg xmlns="http://www.w3.org/2000/svg" xml:space="preserve" width="2480px" height="3508px" version="1.1" style="shape-rendering:geometricPrecision; text-rendering:geometricPrecision; image-rendering:optimizeQuality; fill-rule:evenodd; clip-rule:evenodd"
viewBox="0 0 2480 3507"
 xmlns:xlink="http://www.w3.org/1999/xlink"
 data-name="Layer 1">
 <defs>
  <style type="text/css">
   <![CDATA[
    .fil2 {fill:#2F2E41}
    .fil1 {fill:#3F3D56}
    .fil5 {fill:#CACACA}
    .fil0 {fill:#E6E6E6}
    .fil4 {fill:#F9A826}
    .fil3 {fill:white}
   ]]>
  </style>
 </defs>
 <g id="Camada_x0020_1">
  <metadata id="CorelCorpID_0Corel-Layer"/>
  <path id="fd64def7-6a13-40ab-ac2d-27d7bb837252-216" class="fil0" d="M1185 1948l-216 0c-4,0 -8,-3 -8,-6l0 -47c0,-3 4,-5 8,-5l216 0c5,0 8,2 8,5l0 47c0,3 -3,5 -8,6z" data-name="ac481be8-039b-4a38-bb10-2d9a81406e5c-1003"/>
  <path id="f3d257e2-a3b3-4c88-a188-1639081793e8-217" class="fil1" d="M1120 1973l-216 0c-5,0 -8,-2 -8,-5l0 -47c0,-3 3,-6 8,-6l216 0c4,0 8,3 8,6l0 47c0,3 -4,5 -8,5zm-216 -55c-3,0 -5,1 -5,3l0 47c0,2 2,3 5,3l216 0c3,0 5,-1 5,-3l0 -47c0,-2 -2,-3 -5,-3l-216 0z" data-name="e05581d0-cd6a-412e-af3c-57495fab8d46-1004"/>
  <path id="af1be544-8131-4fe7-8648-199d5a99a025-218" class="fil1" d="M777 2074c-3,0 -6,2 -6,6 0,3 3,6 6,6l227 0c0,0 0,0 1,0 3,0 6,-3 6,-6 0,-4 -3,-6 -6,-6 0,0 0,0 -1,0l-227 0z" data-name="bf4cb793-0df2-4753-9628-c376ea3545d1-1007"/>
  <path id="e31bcc86-3690-4431-8796-f8ae99059738-219" class="fil1" d="M973 1950c-2,0 -3,1 -3,3 0,2 1,4 3,4l125 0c0,0 0,0 0,0 2,0 4,-2 4,-4 0,-2 -2,-3 -4,-3 0,0 0,0 0,0l-125 0z" data-name="bf2170fd-291c-4664-b596-01f8e04656d6-1008"/>
  <path id="a57870e8-de60-471f-b9b7-92106e879aa4-220" class="fil0" d="M1392 1621l-217 0c-4,0 -7,-2 -7,-5l0 -47c0,-3 3,-6 7,-6l217 0c4,0 8,3 8,6l0 47c0,3 -4,5 -8,5z" data-name="a69b3c31-ebec-4776-89b9-9c88b713759e-1002"/>
  <path id="ae707616-7859-44c4-85e2-23c8eff2faa5-221" class="fil1" d="M1296 1602c-2,0 -4,2 -4,4 0,2 2,3 4,3l125 0c0,0 0,0 0,0 2,0 3,-1 3,-3 0,-2 -1,-4 -3,-4 0,0 0,0 0,0l-125 0z" data-name="f4993879-8a0d-4ea4-907e-e549be7081a0-1005"/>
  <path id="fa5c53e0-b4e1-47b9-8303-3d466a67aea7-222" class="fil1" d="M1362 1510c-3,0 -6,3 -6,6 0,3 3,6 6,6l228 0c0,0 0,0 0,0 3,0 6,-2 6,-6 0,-3 -3,-6 -6,-6 0,0 0,0 0,0l-228 0z" data-name="a649136c-96b9-48c7-9686-75389104c34a-1006"/>
  <path id="e8766300-bfe9-404a-93f8-d64e2f4a896b-223" class="fil1" d="M1448 1644l-216 0c-5,0 -8,-2 -8,-5l0 -47c0,-3 3,-6 8,-6l216 0c4,0 8,3 8,6l0 47c0,3 -4,5 -8,5zm-216 -56c-3,0 -5,2 -5,4l0 47c0,1 2,3 5,3l216 0c3,0 5,-2 5,-3l0 -47c0,-2 -2,-4 -5,-4l-216 0z" data-name="acccf4df-3a09-4c7b-a8c8-af469fe66e6d-1009"/>
  <path class="fil0" d="M1125 1683c-1,0 -3,2 -3,3l0 115c0,1 2,2 3,2l114 0c2,0 3,-1 3,-2l0 -115c0,-1 -1,-3 -3,-3l-114 0z"/>
  <path class="fil2" d="M1146 1822c0,0 0,0 0,0 0,6 -2,12 -4,17 -1,1 -1,2 -1,2l-70 0c0,0 0,-1 -1,-2 -2,-5 -4,-11 -4,-17 0,-22 18,-40 40,-40 22,0 40,18 40,40 0,0 0,0 0,0l0 0z"/>
  <circle class="fil3" cx="1107" cy="1812" r="14"/>
  <circle class="fil1" cx="1107" cy="1812" r="5"/>
  <path class="fil4" d="M1067 1785c-3,-15 8,-29 23,-33 16,-3 32,6 35,20 3,14 -7,20 -23,23 -16,4 -31,4 -35,-10z"/>
  <path class="fil1" d="M1163 1718l-114 0c-3,0 -5,2 -5,4l0 115c0,2 2,4 5,4l114 0c2,0 5,-2 5,-4l0 -115c0,-2 -3,-4 -5,-4zm7 123c0,2 -1,3 -2,3l-115 0c-1,0 -3,-1 -3,-3l0 -114c0,-2 2,-3 3,-3l115 0c1,0 2,1 2,3l0 114z"/>
  <ellipse class="fil0" cx="1092" cy="2054" rx="65" ry="5"/>
  <circle class="fil4" cx="935" cy="1942" r="18"/>
  <ellipse class="fil2" transform="matrix(0.105345 -0.275614 0.275614 0.105345 1122.17 1967.81)" rx="67" ry="21"/>
  <circle class="fil2" transform="matrix(0.0472634 -0.29125 0.29125 0.0472634 1085.47 1997.8)" r="135"/>
  <rect class="fil2" x="1067" y="2029" width="12.0624" height="21.612"/>
  <rect class="fil2" x="1092" y="2029" width="12.0624" height="21.612"/>
  <ellipse class="fil2" cx="1077" cy="2051" rx="10" ry="4"/>
  <ellipse class="fil2" cx="1102" cy="2050" rx="10" ry="4"/>
  <path class="fil4" d="M1047 1961c-3,-14 7,-29 23,-33 16,-3 31,6 34,20 4,14 -7,20 -23,23 -16,4 -31,4 -34,-10z"/>
  <ellipse class="fil2" transform="matrix(0.126442 -0.266595 0.266595 0.126442 1040.75 1979.37)" rx="21" ry="67"/>
  <ellipse class="fil0" cx="1466" cy="1842" rx="65" ry="5"/>
  <circle class="fil4" cx="1258" cy="1612" r="18"/>
  <circle class="fil2" cx="1468" cy="1786" r="40"/>
  <rect class="fil2" x="1474" y="1817" width="12.0624" height="21.612"/>
  <rect class="fil2" x="1450" y="1817" width="12.0624" height="21.612"/>
  <ellipse class="fil2" cx="1476" cy="1839" rx="10" ry="4"/>
  <ellipse class="fil2" cx="1452" cy="1838" rx="10" ry="4"/>
  <circle class="fil3" cx="1467" cy="1776" r="14"/>
  <circle class="fil1" cx="1467" cy="1776" r="5"/>
  <path class="fil0" d="M1507 1749c3,-15 -7,-29 -23,-33 -16,-3 -32,6 -35,20 -3,14 7,20 23,23 16,4 31,4 35,-10z"/>
  <circle class="fil2" cx="1480" cy="1665" r="39"/>
  <rect class="fil2" transform="matrix(0.295057 -0.00137159 0.00137159 0.295057 1486.08 1695.08)" width="39.8796" height="71.4523"/>
  <rect class="fil2" transform="matrix(0.295057 -0.00137159 0.00137159 0.295057 1462.54 1695.19)" width="39.8796" height="71.4523"/>
  <ellipse class="fil2" transform="matrix(0.254841 -0.148716 0.148716 0.254841 1466.08 1718.46)" rx="33" ry="12"/>
  <ellipse class="fil2" transform="matrix(0.254841 -0.148716 0.148716 0.254841 1489.13 1718.35)" rx="33" ry="12"/>
  <circle class="fil3" cx="1479" cy="1655" r="13"/>
  <circle class="fil1" cx="1474" cy="1649" r="4"/>
  <path class="fil4" d="M1517 1629c4,-15 -7,-29 -22,-32 -15,-3 -31,5 -34,19 -3,14 8,19 23,23 16,3 30,4 33,-10z"/>
  <ellipse class="fil2" transform="matrix(0.114837 -0.271795 0.271795 0.114837 1439.6 1645.1)" rx="21" ry="66"/>
  <ellipse class="fil2" transform="matrix(0.114838 -0.271795 0.271795 0.114838 1518.74 1677.2)" rx="21" ry="66"/>
  <path class="fil3" d="M1488 1682c0,0 0,0 0,0 0,5 -4,8 -9,8 -5,0 -9,-3 -9,-8l0 0 0 0c0,-5 4,-6 9,-6 5,0 9,1 9,6z"/>
  <path class="fil5" d="M1523 1489l-631 0c-1,0 -1,-1 -1,-1 0,-1 0,-1 1,-1l631 0c0,0 0,0 0,1 0,0 0,1 0,1l0 0z"/>
  <circle class="fil1" cx="912" cy="1465" r="10"/>
  <circle class="fil1" cx="947" cy="1465" r="10"/>
  <circle class="fil1" cx="982" cy="1465" r="10"/>
  <path class="fil1" d="M1502 1461l-25 0c-1,0 -2,-1 -2,-2 0,-1 1,-2 2,-2l25 0c1,0 2,1 2,2 0,1 -1,2 -2,2l0 0z"/>
  <path class="fil1" d="M1502 1468l-25 0c-1,0 -2,-1 -2,-2 0,-1 1,-2 2,-2l25 0c1,0 2,1 2,2 0,1 -1,2 -2,2l0 0z"/>
  <path class="fil1" d="M1502 1475l-25 0c-1,0 -2,-1 -2,-2 0,-1 1,-2 2,-2l25 0c1,0 2,1 2,2 0,1 -1,2 -2,2l0 0z"/>
 </g>
</svg>
